<?xml version="1.0" encoding="utf-8"?>
<!-- Svg Vector Icons : http://www.onlinewebfonts.com/icon -->
<!DOCTYPE svg PUBLIC "-//W3C//DTD SVG 1.1//EN" "http://www.w3.org/Graphics/SVG/1.1/DTD/svg11.dtd">
<svg version="1.1" xmlns="http://www.w3.org/2000/svg" xmlns:xlink="http://www.w3.org/1999/xlink" x="0px" y="0px" viewBox="0 0 256 256" enable-background="new 0 0 256 256" xml:space="preserve">
<metadata> Svg Vector Icons : http://www.onlinewebfonts.com/icon </metadata>
<g><g><g><path fill="#000" d="M95.3,11.1c-17.7,1.7-35.7,9-49.9,20.2C41,34.8,32.8,43.1,29.7,47.2C15.6,65.6,8.5,89,10.3,111.3c1,12.5,3.9,23.4,9,34.2C40.4,189.7,91.9,210.2,138,193c7.2-2.7,16.6-7.8,23-12.6l3.6-2.7l33.9,33.8c18.7,18.6,34.1,33.8,34.3,33.9c0.2,0,3.2-2.8,6.8-6.4l6.5-6.5l-34.1-34.1l-34.1-34.1l2.5-3.4c7.4-10,13.2-22.5,16-34.8c3.1-13.3,3.1-30-0.2-43.4c-6.7-27.5-25.2-50.4-50.5-62.6C130,12.5,112.6,9.4,95.3,11.1z M119.5,30.8c24.3,5.2,44.6,21.7,54.3,43.9c4.3,10,6.1,18.9,6.1,30.2c0,14.3-3.2,26.2-10.2,38.1c-16.6,28.2-49,42.4-81.2,35.7c-9-1.8-20.3-6.9-28.3-12.5c-5.6-4-13.2-11.6-17.2-17.2c-6.3-8.8-11.2-20.3-13.1-30.7c-1.3-7-1.2-20.8,0.2-27.8c6-30.1,29.5-53.8,59.2-59.6c7.1-1.4,6.8-1.3,16.6-1.2C112.9,29.8,115.9,30,119.5,30.8z"/></g></g></g>
</svg>